<?xml version="1.0" standalone="no"?>
<!DOCTYPE svg PUBLIC "-//W3C//DTD SVG 20010904//EN"
 "http://www.w3.org/TR/2001/REC-SVG-20010904/DTD/svg10.dtd">
<svg version="1.0" xmlns="http://www.w3.org/2000/svg"
 width="156.000000pt" height="156.000000pt" viewBox="0 0 156.000000 156.000000"
 preserveAspectRatio="xMidYMid meet">
<metadata>
Created by potrace 1.14, written by Peter Selinger 2001-2017
</metadata>
<g transform="translate(0.000000,156.000000) scale(0.100000,-0.100000)"
fill="#000000" stroke="none">
<path d="M80 1513 c0 -3 52 -99 115 -213 l115 -206 0 -112 0 -112 95 0 95 0 0
109 0 108 106 189 c58 104 112 201 120 217 l15 27 -111 0 -110 0 -56 -112 -56
-111 -25 44 c-14 24 -40 74 -59 112 l-34 67 -105 0 c-58 0 -105 -3 -105 -7z"/>
<path d="M1060 1507 c-111 -25 -190 -93 -233 -200 -18 -45 -22 -78 -25 -244
l-4 -193 337 0 336 0 -3 203 c-3 198 -4 203 -31 259 -68 138 -222 210 -377
175z m158 -217 c52 -32 72 -74 72 -152 l0 -68 -155 0 -155 0 0 58 c0 75 31
140 80 164 47 24 117 23 158 -2z"/>
<path d="M1012 751 c-146 -50 -229 -190 -220 -370 7 -145 75 -253 196 -309 48
-23 71 -27 147 -27 82 0 97 3 157 33 114 56 178 151 193 289 19 166 -74 327
-218 382 -73 27 -180 28 -255 2z m203 -201 c59 -29 89 -84 83 -156 -5 -62 -28
-99 -77 -128 -46 -27 -129 -25 -174 3 -39 24 -77 91 -77 134 0 33 24 94 48
121 42 47 129 59 197 26z"/>
<path d="M120 415 l0 -335 100 0 100 0 0 125 0 125 38 0 37 0 63 -125 62 -125
115 0 116 0 -43 78 c-23 42 -61 112 -85 156 -24 43 -43 82 -43 87 0 4 9 23 20
42 25 41 120 275 120 294 0 10 -25 13 -104 13 l-104 0 -37 -105 c-21 -57 -44
-110 -51 -116 -8 -6 -34 -14 -59 -17 l-45 -5 0 122 0 121 -100 0 -100 0 0
-335z"/>
</g>
</svg>
